# xmcd
#
# Track frame offsets: 
#        150
#        19626
#        40669
#        57121
#        78987
#        97775
#        115844
#        139420
#        160831
#        182150
#        208579
#        231219
#        252626
#
# Disc length: 3622 seconds
#
# Revision: 0
# Processed by: cddbd v1.5.2PL0 Copyright (c) Steve Scherf et al.
# Submitted via: ExactAudioCopyFreeDBPlugin 1.0
#
DISCID=a60e240d
DTITLE=Lucinda Williams - World Without Tears
DYEAR=2003
DGENRE=Country
TTITLE0=World Without Tears
TTITLE1=American Dream
TTITLE2=Sweet Side
TTITLE3=Fruits Of My Labor
TTITLE4=Minneapolis
TTITLE5=Overtime
TTITLE6=People Talkin'
TTITLE7=Real Live Bleeding Fingers And Broken Guitar Strings
TTITLE8=Righteously
TTITLE9=Atonement
TTITLE10=Those Three Days
TTITLE11=Ventura
TTITLE12=Words Fell
EXTD=
EXTT0=
EXTT1=
EXTT2=
EXTT3=
EXTT4=
EXTT5=
EXTT6=
EXTT7=
EXTT8=
EXTT9=
EXTT10=
EXTT11=
EXTT12=
PLAYORDER=
